<?xml version="1.0" encoding="UTF-8" standalone="no"?>
<!-- Uploaded to: SVG Repo, www.svgrepo.com, Transformed by: SVG Repo Mixer Tools -->

<svg
   width="800"
   height="800"
   viewBox="0 0 128 128"
   aria-hidden="true"
   role="img"
   class="iconify iconify--noto"
   preserveAspectRatio="xMidYMid"
   fill="#000000"
   version="1.1"
   id="svg29"
   sodipodi:docname="backgroundimage.svg"
   inkscape:version="1.4 (e7c3feb1, 2024-10-09)"
   xmlns:inkscape="http://www.inkscape.org/namespaces/inkscape"
   xmlns:sodipodi="http://sodipodi.sourceforge.net/DTD/sodipodi-0.dtd"
   xmlns="http://www.w3.org/2000/svg"
   xmlns:svg="http://www.w3.org/2000/svg">
  <defs
     id="defs29" />
  <sodipodi:namedview
     id="namedview29"
     pagecolor="#ffffff"
     bordercolor="#000000"
     borderopacity="0.25"
     inkscape:showpageshadow="2"
     inkscape:pageopacity="0.0"
     inkscape:pagecheckerboard="0"
     inkscape:deskcolor="#d1d1d1"
     inkscape:zoom="0.06625"
     inkscape:cx="581.13208"
     inkscape:cy="150.9434"
     inkscape:window-width="1656"
     inkscape:window-height="829"
     inkscape:window-x="0"
     inkscape:window-y="44"
     inkscape:window-maximized="0"
     inkscape:current-layer="svg29" />
  <g
     id="SVGRepo_bgCarrier"
     stroke-width="0" />
  <g
     id="SVGRepo_tracerCarrier"
     stroke-linecap="round"
     stroke-linejoin="round" />
  <g
     id="SVGRepo_iconCarrier"
     transform="matrix(1.1334054,0,0,1.0666667,-8.5413426,-4.2666667)">
    <path
       d="M 116.04,124 H 14.45 a 2.4,2.4 0 0 1 -2.4,-2.4 V 53.59 h 106.38 v 68.01 c 0,1.33 -1.07,2.4 -2.39,2.4 z"
       fill="#424242"
       id="path1" />
    <path
       d="m 13.93,48.54 h 104.5 v 7.59 H 13.93 Z"
       fill="#000000"
       id="path2" />
    <path
       d="m 12.06,53.59 v 68.58 c 0,1.01 0.82,1.82 1.82,1.82 h 0.15 c 1.01,0 1.82,-0.82 1.82,-1.82 V 53.59 Z"
       fill="#616161"
       id="path3" />
    <path
       fill="#eeeeee"
       d="M 10.03,36.86 H 120.47 V 53.6 H 10.03 Z"
       id="path4" />
    <path
       fill="#f5f5f5"
       d="m 10.03,36.86 h 110.44 v 2.15 H 10.03 Z"
       id="path5" />
    <path
       fill="#424242"
       d="M 67.44,36.86 50.7,53.59 H 66.63 L 83.37,36.86 Z"
       id="path6" />
    <path
       fill="#424242"
       d="M 95.48,36.86 78.74,53.59 h 15.93 l 16.74,-16.73 z"
       id="path7" />
    <path
       fill="#424242"
       d="M 39.65,36.86 22.91,53.59 H 38.84 L 55.08,37.35 v -0.49 z"
       id="path8" />
    <path
       fill="#424242"
       d="m 120.46,40.39 -13.2,13.2 h 13.2 z"
       id="path9" />
    <path
       opacity="0.4"
       fill="#444141"
       d="m 10.03,36.86 h 110.44 v 2.15 H 10.03 Z"
       id="path10" />
    <path
       fill="#eeeeee"
       d="M 7.54,20.3 116.764,4 119.234,20.555 10.01,36.856 Z"
       id="path11" />
    <path
       fill="#f5f5f5"
       d="M 7.536,20.3 116.76,4 117.077,6.126 7.853,22.427 Z"
       id="path12" />
    <path
       fill="#424242"
       d="M 66.77,28.41 47.74,14.32 63.5,11.97 82.52,26.05 Z"
       id="path13" />
    <path
       fill="#424242"
       d="M 94.45,24.25 75.42,10.17 91.18,7.82 110.2,21.9 Z"
       id="path14" />
    <path
       fill="#424242"
       d="M 39.33,32.5 20.31,18.41 36.06,16.06 54.52,29.73 54.59,30.22 Z"
       id="path15" />
    <path
       fill="#424242"
       d="M 118.71,17.06 103.71,5.95 116.76,4 Z"
       id="path16" />
    <path
       fill="#424242"
       d="M 9.71,22.42 25.94,34.44 11.82,36.58 Z"
       id="path17" />
    <path
       opacity="0.4"
       fill="#444141"
       d="M 7.536,20.3 116.76,4 117.077,6.126 7.853,22.427 Z"
       id="path18" />
    <path
       fill="#9e9e9e"
       d="m 10.02,36.85 h 1.83 L 9.36,20.06 7.55,20.33 Z"
       id="path19" />
    <path
       fill="none"
       stroke="#444141"
       stroke-width="2.083"
       stroke-linecap="round"
       stroke-miterlimit="10"
       d="M 23.94,69.52 H 110.8"
       id="path20" />
    <path
       fill="none"
       stroke="#444141"
       stroke-width="2.083"
       stroke-linecap="round"
       stroke-miterlimit="10"
       d="M 23.94,84.63 H 110.8"
       id="path21" />
    <path
       fill="none"
       stroke="#444141"
       stroke-width="2.083"
       stroke-linecap="round"
       stroke-miterlimit="10"
       d="M 23.94,99.74 H 110.8"
       id="path22" />
    <path
       fill="none"
       stroke="#444141"
       stroke-width="2.083"
       stroke-linecap="round"
       stroke-miterlimit="10"
       d="M 51.85,115.51 V 99.74"
       id="path23" />
    <path
       fill="none"
       stroke="#444141"
       stroke-width="2.083"
       stroke-linecap="round"
       stroke-miterlimit="10"
       d="M 82.89,115.51 V 99.74"
       id="path24" />
    <path
       fill="#bdbdbd"
       d="m 10.03,36.85 h 1.82 V 53.6 h -1.82 z"
       id="path25" />
    <g
       id="g29">
      <path
         d="M 35.3,53.59 H 14.87 c -1.67,0 -3.02,-1.35 -3.02,-3.02 V 29.43 c 0,-3.47 5.73,-5.6 9.52,-2.37 l 17.16,19.16 c 1.9,1.9 -0.54,7.37 -3.23,7.37 z"
         fill="#616161"
         id="path26" />
      <path
         d="M 36.84,53.59 H 18.76 a 4.5,4.5 0 0 1 -4.5,-4.5 V 31.01 c 0,-4.15 5.01,-6.22 7.95,-3.29 l 17.93,17.93 c 2.93,2.93 0.85,7.94 -3.3,7.94 z"
         fill="#424242"
         id="path27" />
      <circle
         cx="19.74"
         cy="47.740002"
         r="2.1600001"
         fill="#616161"
         id="circle27" />
      <circle
         cx="19.74"
         cy="34.25"
         r="2.1600001"
         fill="#616161"
         id="circle28" />
      <circle
         cx="34.75"
         cy="47.740002"
         r="2.1600001"
         fill="#616161"
         id="circle29" />
    </g>
  </g>
</svg>
